<?xml version="1.0" encoding="UTF-8"?>
<!DOCTYPE svg PUBLIC "-//W3C//DTD SVG 1.1//EN" "http://www.w3.org/Graphics/SVG/1.1/DTD/svg11.dtd">
<!-- Creator: CorelDRAW -->
<svg xmlns="http://www.w3.org/2000/svg" xml:space="preserve" width="210mm" height="297mm" version="1.1" style="shape-rendering:geometricPrecision; text-rendering:geometricPrecision; image-rendering:optimizeQuality; fill-rule:evenodd; clip-rule:evenodd"
viewBox="0 0 21000 29700"
 xmlns:xlink="http://www.w3.org/1999/xlink"
 xmlns:xodm="http://www.corel.com/coreldraw/odm/2003"
 enable-background="new 0 0 512 512">
 <defs>
  <style type="text/css">
   <![CDATA[
    .fil0 {fill:#6BBBAE;fill-rule:nonzero}
   ]]>
  </style>
 </defs>
 <g id="Слой_x0020_1">
  <metadata id="CorelCorpID_0Corel-Layer"/>
  <g id="_105553116548320">
   <path class="fil0" d="M11896.26 20307.93l-641.24 0c-109.59,0 -198.44,88.82 -198.44,198.44 0,109.62 88.85,198.44 198.44,198.44l641.24 0c109.59,0 198.44,-88.82 198.44,-198.44 0,-109.62 -88.85,-198.44 -198.44,-198.44z"/>
   <path class="fil0" d="M9104.4 20704.81l641.25 0c109.59,0 198.44,-88.82 198.44,-198.44 0,-109.62 -88.85,-198.44 -198.44,-198.44l-641.25 0c-109.59,0 -198.44,88.82 -198.44,198.44 0,109.62 88.85,198.44 198.44,198.44z"/>
   <path class="fil0" d="M9046.46 14626.98l0 -317.5c0,-109.62 -88.85,-198.44 -198.44,-198.44 -109.59,0 -198.44,88.82 -198.44,198.44l0 317.5c0,109.62 88.85,198.44 198.44,198.44 109.59,0 198.44,-88.82 198.44,-198.44z"/>
   <path class="fil0" d="M12351.1 14626.98l0 -317.5c0,-109.62 -88.85,-198.44 -198.44,-198.44 -109.59,0 -198.44,88.82 -198.44,198.44l0 317.5c0,109.62 88.85,198.44 198.44,198.44 109.59,0 198.44,-88.82 198.44,-198.44z"/>
   <path class="fil0" d="M10500.34 15014.44c224.31,0 437.62,-97.16 585.23,-266.51 71.99,-82.63 63.39,-207.99 -19.24,-279.98 -82.66,-71.99 -207.99,-63.42 -279.98,19.24 -72.23,82.89 -176.48,130.41 -286.01,130.41 -109.56,0 -213.81,-47.52 -286.01,-130.41 -72.02,-82.6 -197.35,-91.2 -279.98,-19.24 -82.63,72.02 -91.23,197.35 -19.24,279.98 147.61,169.36 360.92,266.51 585.23,266.51z"/>
   <path class="fil0" d="M17060.93 13097.64c-161.55,-227.81 -370.58,-444.34 -621.24,-643.65 -85.8,-68.18 -210.63,-53.92 -278.82,31.86 -68.21,85.78 -53.95,210.61 31.83,278.82 221.38,176 404.57,365.26 544.49,562.53 241.72,340.89 161.08,814.89 -179.84,1056.61 -128.85,91.39 -280.17,139.67 -437.57,139.67 -710.43,-22.86 -585.66,-785.92 -2272.37,-1245.74 -667.2,-208.07 -1790.36,-456.14 -3352.14,-456.14 -1553.1,0 -2674.38,246.99 -3341.5,454.21 -812.51,252.33 -1253.46,534.51 -1658.86,920.96 -148.11,141.18 -294.51,271.52 -494.43,303.24 -199.95,31.7 -400.26,-16.27 -564.07,-135.2 -163.83,-118.93 -271.52,-294.53 -303.24,-494.48 -31.75,-199.92 16.3,-400.21 135.23,-564.04 567.29,-781.42 1654.47,-1241.11 2466.58,-1489.13 1094.98,-334.49 2395.27,-511.28 3760.31,-511.28 1371.84,0 2677.45,178.41 3775.66,515.94 431.4,132.61 825.98,289.98 1172.82,467.76 97.58,50.03 217.12,11.46 267.12,-86.07 50,-97.53 11.46,-217.12 -86.07,-267.1 -218.25,-111.89 -454.08,-215.71 -704.35,-310.99l-384.2 -1612.85c-265.32,-1113.6 -1250.21,-1891.45 -2395.11,-1891.45l-3281.63 0c-1144.91,0 -2129.79,777.85 -2395.11,1891.56l-383.2 1608.56c-768.69,291.52 -1625.49,751.58 -2133.97,1451.95 -181.21,249.58 -254.4,554.8 -206.03,859.42 48.34,304.64 212.43,572.19 462.04,753.43 324.06,239.53 766.15,286.62 1134.77,126.74 171.08,422.62 579.52,721.33 1047.43,741.76 133.09,465.08 345.36,905.88 632.25,1306.83 64.16,89.75 188.67,109.27 276.86,45.91 89.14,-63.76 109.7,-187.72 45.91,-276.86 -472.89,-660.93 -722.84,-1441.24 -722.84,-2256.58 0,-164.33 10.95,-329.19 31.49,-491.78 814.18,-352.13 2145.06,-663.52 3846.2,-663.52 1711.85,0 3044.9,312.84 3856.67,666.43 20.24,161.53 31.06,325.41 31.06,488.87 0,2140.93 -1741.78,3882.68 -3882.71,3882.68 -947.31,0 -1859.78,-345.18 -2569.29,-971.95 -82.13,-72.55 -207.54,-64.8 -280.11,17.33 -72.55,82.15 -64.8,207.57 17.36,280.11 276.09,243.89 580.15,448.89 903.82,612.33 -894.69,542.5 -1529.61,1443.3 -1728.79,2478.85 -43.05,223.97 15.53,453.26 160.79,629.1 145.18,175.76 359.17,276.54 587.06,276.54l5818.25 0c227.91,0 441.91,-100.81 587.06,-276.54 145.23,-175.84 203.84,-405.13 160.79,-629.1 -199.2,-1035.79 -834.36,-1936.78 -1729.4,-2479.23 1051.67,-532.79 1855.02,-1487.14 2186.25,-2639.4 470.38,-19.31 872.7,-308.93 1045.08,-730.28 361.18,160.87 805.71,116.65 1127.71,-116.73 519.4,-368.27 642.33,-1090.51 274,-1609.91zm-8201.4 -4579.65l3281.63 0c1028.36,-5.79 1880.1,752.48 2049.75,1757.65 -1100.75,-313.37 -2341.59,-473.9 -3695.99,-476.49 -1348.82,2.65 -2585.98,162.16 -3684.43,473.47 170.34,-1004.04 1022.03,-1760.3 2049.04,-1754.64l0 0.01zm-2155.08 2199.77c1115.3,-343.14 2389.74,-518.95 3790.47,-521.71 1406.58,2.67 2684.7,179.63 3802.12,525.07l178.51 749.41c-1175.89,-373.14 -2528.6,-559.36 -3980.26,-561.45 -1447.14,1.88 -2794.08,187.48 -3969.28,557.58l178.44 -748.9zm-414.53 4427.09c-290.01,-55.64 -529.38,-272.63 -610.76,-558.11 177.72,-191.88 253.05,-328.27 550.94,-494.32 -6.11,93.72 -9.37,187.67 -9.37,281.41 0,261.04 23.42,518.77 69.19,771.02zm5150.59 3404.26l-940.17 1144.53 -940.46 -1144.85c306.41,68.95 621.61,104.62 940.46,104.62 322.9,0 637.51,-36.17 940.17,-104.3zm-2487.85 -114.24l1349.22 1642.48 0 1104.66 -1772.13 0 0 -411.24c0,-543.45 -316.04,-1021.95 -794.12,-1240.95 305.38,-455.37 722,-834.36 1217.03,-1094.95zm-1642.53 2614.71c-69.59,-84.24 -97.66,-194.1 -77.02,-301.41 59.03,-306.92 161.18,-600.45 300.2,-873.6 359.33,147.19 599.6,496.97 599.6,896.2l0 411.24 -541.71 0c-109.11,0 -211.56,-48.29 -281.07,-132.42l0 -0.01zm6380.4 0c-69.51,84.16 -171.95,132.42 -281.07,132.42l-541.7 0.01 0 -411.24c0,-399.23 240.27,-749.01 599.6,-896.2 138.99,273.16 241.17,566.68 300.2,873.6 20.66,107.32 -7.43,217.17 -77.02,301.41l-0.01 0zm-425.53 -1519.79c-478.05,219 -794.12,697.49 -794.12,1240.95l0 411.24 -1772.12 0 0 -1104.66 1349.22 -1642.48c495.06,260.61 911.67,639.6 1217.03,1094.95l-0.01 0zm1445.08 -4384.33c45.77,-250.38 69.85,-508.24 69.85,-771.63 0,-92.18 -3.15,-184.52 -9.02,-276.6 298,167.27 368.25,307.02 547.82,500.38 -84.01,284.22 -319.14,494.35 -608.65,547.85z"/>
  </g>
 </g>
</svg>
