<?xml version="1.0" encoding="UTF-8"?>
<!DOCTYPE svg PUBLIC "-//W3C//DTD SVG 1.1//EN" "http://www.w3.org/Graphics/SVG/1.1/DTD/svg11.dtd">
<!-- Creator: CorelDRAW -->
<svg xmlns="http://www.w3.org/2000/svg" xml:space="preserve" width="210mm" height="297mm" version="1.1" style="shape-rendering:geometricPrecision; text-rendering:geometricPrecision; image-rendering:optimizeQuality; fill-rule:evenodd; clip-rule:evenodd"
viewBox="0 0 21000 29700"
 xmlns:xlink="http://www.w3.org/1999/xlink"
 xmlns:xodm="http://www.corel.com/coreldraw/odm/2003"
 enable-background="new 0 0 512 512">
 <defs>
  <style type="text/css">
   <![CDATA[
    .fil0 {fill:#6BBBAE;fill-rule:nonzero}
   ]]>
  </style>
 </defs>
 <g id="Слой_x0020_1">
  <metadata id="CorelCorpID_0Corel-Layer"/>
  <g id="_105553130570816">
   <path class="fil0" d="M16586.37 11797.87l-1424.54 0 -3984.44 -1658.78c-59.37,-320.01 -340.44,-563.19 -677.39,-563.19 -336.95,0 -618.01,243.18 -677.39,563.19l-3984.44 1658.78 -1424.54 0c-378.8,0 -686.96,308.19 -686.96,686.99l0 5340.32c0,109.59 88.85,198.44 198.44,198.44 109.59,0 198.44,-88.85 198.44,-198.44l0 -5340.32c0,-159.97 130.12,-290.09 290.09,-290.09l12172.7 0c159.97,0 290.09,130.12 290.09,290.09l0 471.36c0,109.59 88.85,198.44 198.44,198.44 109.59,0 198.44,-88.85 198.44,-198.44l0 -471.36c0.03,-378.8 -308.13,-686.99 -686.94,-686.99zm-6086.37 -1825.09c161.13,0 292.23,131.1 292.23,292.23 0,161.13 -131.1,292.26 -292.23,292.26 -161.13,0 -292.23,-131.1 -292.23,-292.23 0,-161.13 131.1,-292.26 292.23,-292.26zm-627.91 575.62c108.29,239 348.91,405.74 627.91,405.74 279,0 519.62,-166.77 627.91,-405.74l3001.33 1249.49 -7258.48 0.01 3001.33 -1249.5z"/>
   <path class="fil0" d="M17074.9 13683.82c-109.59,0 -198.44,88.85 -198.44,198.44l0 5554.87c0,159.97 -130.12,290.09 -290.09,290.09l-12172.74 0c-159.97,0 -290.09,-130.12 -290.09,-290.09l0 -685.91c0,-109.59 -88.85,-198.44 -198.44,-198.44 -109.59,0 -198.44,88.85 -198.44,198.44l0 685.91c0,378.8 308.16,686.96 686.96,686.96l12172.72 0.01c378.8,0 686.96,-308.16 686.96,-686.96l0 -5554.87c0.03,-109.62 -88.82,-198.44 -198.41,-198.44l0.01 -0.01z"/>
   <path class="fil0" d="M10725.77 17057.31c109.59,0 198.44,-88.85 198.44,-198.44 0,-109.59 -88.85,-198.44 -198.44,-198.44 -145.07,4.45 -215.34,-192.62 -101.07,-281.31 45.56,-37.7 71.94,-93.74 71.94,-152.88 0,-59.14 -26.38,-115.2 -71.94,-152.88 -76.25,-59.98 -76.28,-185 0,-244.98 45.56,-37.7 71.94,-93.74 71.94,-152.88 0,-59.14 -26.38,-115.2 -71.94,-152.88 -114.27,-88.69 -43.97,-285.78 101.07,-281.31 109.59,0 198.44,-88.85 198.44,-198.44 0,-109.59 -88.85,-198.44 -198.44,-198.44 -306.41,0 -555.68,249.26 -555.68,555.68 0,98.05 25.59,192.56 72.87,275.38 -96.6,164.23 -96.57,386.53 0,550.76 -47.28,82.81 -72.87,177.35 -72.87,275.38 -0.03,306.36 249.26,555.65 555.68,555.65l0 0.03z"/>
   <path class="fil0" d="M8912.5 16614.48c109.59,0 198.44,-88.85 198.44,-198.44 0,-109.59 -88.85,-198.44 -198.44,-198.44 -61.01,4.47 -84.14,-85.59 -40.8,-113.9 45.56,-37.7 71.91,-93.77 71.89,-152.9 -0.02,-59.13 -26.41,-115.17 -71.97,-152.88 -43.34,-28.34 -20.06,-118.3 40.85,-113.8 109.59,0 198.44,-88.85 198.44,-198.44 0,-109.59 -88.85,-198.44 -198.44,-198.44 -333.51,-7.75 -566.37,368.7 -414.42,663.63 -151.95,294.93 80.99,671.35 414.44,663.6l0.01 0.01z"/>
   <path class="fil0" d="M14158.63 15785.65c109.59,0 198.44,-88.85 198.44,-198.44l0 -317.5c0,-109.59 -88.85,-198.44 -198.44,-198.44 -109.59,0 -198.44,88.85 -198.44,198.44l0 317.5c0,109.59 88.85,198.44 198.44,198.44z"/>
   <path class="fil0" d="M6865 15081.83l-1153.08 -665.74c-440.69,-274.85 -1060.66,83.16 -1042.99,602.17l0 1865.21c-17.67,519.09 602.35,876.99 1042.99,602.17l1153.08 -665.72c797.67,478.45 1696.56,684.61 2638.95,858.94l-335.33 475.54c-112.05,158.88 -126.05,364.83 -36.57,537.42 89.48,172.59 265.85,279.82 460.27,279.82l1169.56 -0.01c268.47,0 502.95,-181.53 570.18,-441.46l167.67 -648.15c1238.04,52.04 2844.24,-116.26 3755.58,-734.62 488.76,-326.36 747.1,-740.15 747.1,-1196.55 0,-475.69 -276.12,-902.26 -798.54,-1233.59 -820.05,-542.4 -2347.86,-738.48 -3501.18,-702.68l5.56 -492.57c2.2,-196.14 -79.06,-385.05 -223.02,-518.29 -143.91,-133.22 -338.4,-199.63 -533.9,-182.4l-2176.78 192.88c-173.17,15.35 -324.54,123.56 -395.08,282.44 -70.54,158.88 -49.27,343.77 55.54,482.49l430.4 569.81c-691.22,159.65 -1409.38,367.29 -2000.41,732.9l0 -0.01zm-1351.52 2060.1c-189.15,117.95 -455.27,-35.69 -447.68,-258.47l0 -1865.18c-7.59,-222.81 258.55,-376.42 447.68,-258.47l1013.75 585.28c-179.57,177.8 -290.3,379.25 -290.3,605.79 0,226.54 110.73,427.96 290.3,605.79l-1013.75 585.26zm5434.35 1288.86c-21.93,84.77 -98.37,143.96 -185.95,143.96l-1169.56 0c-66.7,0 -97.71,-45.88 -107.95,-65.62 -10.24,-19.74 -29.87,-71.52 8.57,-126.05l448.55 -636.11c379.97,53.26 768.22,92.52 1153.16,116.1l-146.82 567.72zm4657.73 -2479.94c0,401.24 -310.33,692.68 -570.63,866.51 -407.04,271.81 -1003.94,471.57 -1729.71,579.31 -509.91,-342.64 -812.17,-908.79 -812.17,-1528.31 0,-536.95 229.24,-1038.67 631.69,-1388.98 1510.14,186.58 2480.81,760.1 2480.81,1471.48l0.01 -0.01zm-2988.28 -1519.53c-334.99,399.04 -521.1,903.71 -521.1,1437.03 0,609.68 241.01,1176.87 661.88,1591.76 -261.22,21.27 -540.28,32.15 -834.79,32.15 -2799.03,0 -5289.47,-861.96 -5289.47,-1541.38 0,-679.42 2490.42,-1541.38 5289.47,-1541.38 241.88,-0.03 473.82,7.41 694,21.83l0.01 -0.01zm-3865.54 -891.38c-25.21,-33.36 -16.75,-65.85 -9.47,-82.26 7.28,-16.41 25.72,-44.45 67.36,-48.15l2176.78 -192.88c85.25,-7.59 166.53,20.27 229.26,78.32 62.73,58.05 96.73,137.11 95.78,222.57l-5.77 509.72c-674.18,31.27 -1365.22,111.92 -2009.78,233.1l-544.16 -720.42z"/>
  </g>
 </g>
</svg>
