<?xml version="1.0" encoding="UTF-8"?>
<!DOCTYPE svg PUBLIC "-//W3C//DTD SVG 1.1//EN" "http://www.w3.org/Graphics/SVG/1.1/DTD/svg11.dtd">
<!-- Creator: CorelDRAW -->
<svg xmlns="http://www.w3.org/2000/svg" xml:space="preserve" width="210mm" height="297mm" version="1.1" style="shape-rendering:geometricPrecision; text-rendering:geometricPrecision; image-rendering:optimizeQuality; fill-rule:evenodd; clip-rule:evenodd"
viewBox="0 0 21000 29700"
 xmlns:xlink="http://www.w3.org/1999/xlink"
 xmlns:xodm="http://www.corel.com/coreldraw/odm/2003">
 <defs>
  <style type="text/css">
   <![CDATA[
    .fil0 {fill:#6BBBAE;fill-rule:nonzero}
   ]]>
  </style>
 </defs>
 <g id="Слой_x0020_1">
  <metadata id="CorelCorpID_0Corel-Layer"/>
  <g id="_105553116664256">
   <path class="fil0" d="M7872.69 9557.7c17.48,-56.58 26.38,-115.55 26.38,-174.81 0,-85.81 -18.67,-170.69 -54.63,-248.54 -88.41,-187.45 -257.05,-324.89 -458.48,-373.57 -42.16,-154.1 -140.09,-287.28 -274.53,-373.58 -121.87,-79.28 -264.65,-121.64 -410.19,-121.64 -72.49,0 -144.71,10.57 -214.17,31.15l-26.04 7.51 -13.55 -13.76c-140.07,-137.1 -328.41,-213.97 -524.44,-213.97 -196.03,0 -384.37,76.87 -524.4,213.97l-13.55 13.86 -25.93 -7.51c-69.49,-20.49 -141.61,-31.07 -214.09,-31.07 -145.61,0 -288.27,42.22 -410.33,121.51 -134.38,86.32 -232.29,219.66 -274.53,373.65 -201.6,48.41 -370.55,185.74 -459.2,373.25 -35.9,77.9 -54.59,162.8 -54.59,248.58 0,59.19 8.91,118.23 26.3,174.74 -132.22,135.32 -216.82,310.45 -240.06,498.26 -3.72,32.5 -5.68,65.57 -5.68,98.34 0,196.81 68.74,387.73 194.02,539.36l159.91 197.49c-83.38,210.58 -126.54,435.34 -126.54,661.86 0,387.53 125.75,765.21 357.96,1075.41 -83.85,211.14 -127.23,436.6 -127.23,663.82 0,387.6 125.77,765.13 357.8,1075.39 -83.81,210.88 -127.17,436.44 -127.17,663.53 0,387.4 125.7,764.72 357.61,1074.82 -83.96,211.02 -127.12,436.22 -127.12,663.4 0,389.29 126.84,768.72 361.03,1079.58 -22.67,73.43 -34.31,150.15 -34.31,227.14 0,148.45 43,293.89 123.75,418.39 59.51,93.66 136.62,175.37 226.48,240.36l-254 278.55c-603.86,661.2 -938.95,1525.69 -938.95,2421.76 0,0.88 0,2.19 0,3.07 0,102.18 82.94,185.1 185.21,185.1 32.45,0 64.4,-8.57 92.5,-24.76l650.45 -375.07c355.51,-205.47 653.31,-499.13 864.17,-851.34 210.99,352.21 508.79,645.87 864.25,851.4l650.45 375.07c28.15,16.13 60.1,24.7 92.55,24.7 102.27,0 185.21,-82.92 185.21,-185.19 0,-0.92 0,-2.23 0,-3.11 0,-895.99 -335.07,-1760.41 -938.97,-2421.77l-254 -278.34c89.97,-64.8 167.3,-146.74 226.86,-240.36 80.63,-124.58 123.75,-270.01 123.75,-418.54 0,-77.13 -11.74,-154.07 -34.48,-227.72 234.15,-311.05 361.22,-690.28 361.22,-1079.81 0,-227.41 -43.38,-452.84 -127.51,-664.04 232.03,-310.32 357.63,-687.78 357.63,-1075.32 0,-227.08 -43.4,-452.86 -127.14,-663.72 231.97,-310 357.71,-687.44 357.71,-1074.95 0,-227.16 -43.37,-452.57 -127.27,-663.53 231.85,-310.12 357.6,-687.6 357.6,-1074.94 0,-226.09 -43.16,-450.65 -126.19,-660.75l159.39 -196.85c125.79,-151.77 194.74,-343 194.74,-540.12 0,-32.77 -1.96,-65.84 -5.69,-98.3 -23.4,-187.73 -107.83,-362.74 -239.99,-498.07l0.02 0.03zm-1706.35 9336.3l335.92 368.62c465.69,510.02 755.61,1157.9 825.63,1845.12l-356.02 -205.42c-397.58,-230.34 -706.86,-588.2 -877.15,-1014.93 -28.23,-70.29 -96.42,-116.49 -172.21,-116.49 -75.79,0 -143.98,46.2 -172.08,116.56 -170.4,426.86 -479.51,784.56 -877.05,1014.77l-355.92 205.32c69.79,-687.05 359.67,-1334.85 825.35,-1844.98l336.02 -368.83c80.23,16.32 162.34,24.68 244.3,24.68 81.66,0 163.17,-8.36 243.19,-24.48l0.02 0.06zm1469.81 -8433.54l-230.19 284.59c-26.67,32.94 -41.29,74.13 -41.29,116.55 0,27.55 6.17,54.8 18.01,79.66 92.33,191.16 140.39,401.16 140.39,613.57 0,333.86 -118.52,657.22 -334.21,911.84l-13.44 16.62c-26.66,32.94 -41.25,74.14 -41.25,116.58 0,27.56 6.18,54.84 18.01,79.7 92.37,191.27 140.44,401.28 140.44,613.71 0,333.71 -118.53,657.09 -334.06,911.73l-13.44 16.51c-26.63,33 -41.21,74.27 -41.21,116.77 0,27.76 6.25,55.2 18.19,80.23 92.15,191.13 140.23,401.03 140.23,613.34 0,333.82 -118.4,657.12 -333.99,911.83l-13.97 17.25c-26.49,33.09 -40.94,74.23 -40.94,116.62 0,27.78 6.22,55.25 18.17,80.32 92.2,191.09 140.27,401.13 140.27,613.42 0,333.59 -118.38,656.67 -333.76,911.35l-14.29 17.57c-26.49,33.16 -40.99,74.35 -40.99,116.76 0,27.75 6.24,55.23 18.17,80.27 27.18,55.23 41.42,116.16 41.42,177.78 0,78.75 -23.17,155.84 -66.53,221.53 -63.87,98.91 -159.05,173.99 -270.18,212.96 -78.34,25.77 -160.52,39.03 -242.99,39.03 -82.47,0 -164.65,-13.26 -242.96,-39.01 -111.08,-38.99 -206.14,-113.98 -269.94,-212.85 -43.32,-65.71 -66.49,-142.8 -66.49,-221.55 0,-61.62 14.24,-122.55 41.44,-177.79 11.86,-24.87 18.07,-52.14 18.07,-79.72 0,-42.32 -14.54,-83.38 -41.15,-116.27l-13.55 -16.93c-215.61,-254.76 -334.17,-578.21 -334.17,-912 0,-212.47 48.08,-422.36 140.44,-613.64 11.82,-24.93 18.02,-52.24 18.02,-79.83 0,-42.51 -14.65,-83.78 -41.45,-116.77l-13.23 -16.3c-215.65,-254.59 -334.19,-578 -334.19,-911.91 0,-212.43 48.07,-422.46 140.42,-613.71 11.83,-24.85 18.01,-52.09 18.01,-79.67 0,-42.4 -14.55,-83.53 -41.2,-116.49l-13.86 -17.15c-215.19,-254.97 -333.29,-578.19 -333.29,-911.94 0,-214.44 49.03,-426.64 142.79,-619.33 10.2,-23.27 15.49,-48.57 15.49,-74.08 0,-42.33 -14.54,-83.41 -41.11,-116.34l-14.08 -17.36c-215.77,-254.76 -334.35,-578.28 -334.35,-912.32 0,-212.35 48.09,-422.29 140.3,-613.44 11.94,-25.02 18.18,-52.44 18.18,-80.14 0,-42.42 -14.6,-83.59 -41.29,-116.54l-230.62 -285.12c-71.96,-86.05 -111.48,-194.91 -111.48,-307.17 0,-17.54 1.05,-35.26 2.92,-52.68 19.2,-139.28 94.55,-264.78 208.39,-347.24 46.06,-35.07 73.14,-89.73 73.14,-147.66 0,-34.49 -9.63,-68.33 -27.76,-97.65 -24.1,-37.02 -36.98,-80.36 -36.98,-124.56 0,-33.19 7.25,-66 21.21,-96.09 48.63,-96.32 142.15,-162.14 249.24,-175.48l63.5 -10.58c80.69,-13.37 143.15,-78.16 153.56,-159.29l7.3 -57.57c11.92,-77.92 57.76,-146.59 125.1,-187.52 61.19,-39.39 132.6,-60.35 205.41,-60.35 0.74,0 1.62,0 2.36,0 37.37,0.01 74.67,5.31 110.56,15.67l132.19 38.52c16.79,4.87 34.24,7.34 51.71,7.34 49.73,0 97.45,-19.99 132.34,-55.38l91.12 -92.92c70.42,-66.1 163.45,-102.97 260.04,-102.97 96.59,0 189.62,36.87 260.01,102.95l91.12 92.92c34.94,35.42 82.6,55.4 132.33,55.4 17.46,0 34.88,-2.47 51.63,-7.32l132.29 -38.52c35.6,-10.49 72.76,-15.89 109.93,-15.89 73.72,0 146.01,21.05 208.21,60.54 67.48,40.93 113.45,109.75 125.41,187.76l7.3 57.47c10.3,81.16 72.74,145.92 153.46,159.25l63.5 10.58c107.03,13.48 200.47,79.37 249.15,175.62 13.91,30.03 21.16,62.85 21.16,96 0,44.19 -12.85,87.5 -36.95,124.53 -18.16,29.28 -27.79,63.13 -27.79,97.59 0,57.84 27.07,112.42 73.1,147.43 113.75,82.46 189.08,207.91 208.31,347.1 1.82,17.47 2.87,35.14 2.87,52.7 0,112.41 -39.62,221.37 -111.71,307.57l0 0.01z"/>
   <path class="fil0" d="M12450.09 9557.7c17.47,-56.58 26.37,-115.55 26.37,-174.81 0,-85.81 -18.67,-170.69 -54.63,-248.54 -88.48,-187.4 -257.11,-324.81 -458.46,-373.6 -42.25,-153.94 -140.16,-287.28 -274.53,-373.57 -121.9,-79.26 -264.68,-121.62 -410.22,-121.62 -72.49,0 -144.71,10.57 -214.17,31.15l-26.04 7.51 -13.55 -13.76c-140.07,-137.1 -328.41,-213.97 -524.44,-213.97 -196.02,0 -384.36,76.87 -524.39,213.97l-13.55 13.86 -25.93 -7.51c-69.43,-20.49 -141.63,-31.07 -214.1,-31.07 -145.59,0 -288.23,42.31 -410.27,121.58 -134.43,86.25 -232.34,219.59 -274.58,373.58 -201.41,48.68 -370.1,186.01 -458.5,373.44 -35.85,77.92 -54.54,162.82 -54.54,248.6 0,59.19 8.91,118.23 26.3,174.74 -132.46,135.06 -217.18,310.4 -240.73,498.1 -3.79,32.45 -5.75,65.52 -5.75,98.29 0,196.81 68.74,387.73 194.02,539.36l160.1 197.56c-83.55,210.5 -126.49,435.28 -126.49,661.81 0,387.56 125.75,765.26 357.98,1075.48 -83.99,211.06 -127.38,436.76 -127.38,663.99 0,387.41 125.56,765.17 357.61,1075.23 -83.94,210.92 -127.09,436.11 -127.09,663.26 0,387.51 125.74,764.73 357.72,1074.92 -83.89,210.96 -127.27,436.38 -127.27,663.56 0,389.29 127.06,768.5 361.03,1079.36 -22.84,73.66 -34.39,150.31 -34.39,227.34 0,148.42 43.02,293.73 123.62,418.29 59.65,93.72 136.71,175.29 226.66,240.33l-254 278.55c-603.9,661.26 -938.99,1525.75 -938.99,2421.82 0,0.88 0,2.19 0,3.07 0,102.18 82.94,185.1 185.21,185.1 32.45,0 64.4,-8.57 92.5,-24.76l650.45 -375.07c355.57,-205.5 653.37,-499.16 864.23,-851.37 211.06,352.19 508.92,645.32 864.17,851.19l650.56 375.07c28.16,16.26 60.11,24.83 92.56,24.83 102.27,0 185.21,-82.92 185.21,-185.19 0,-0.76 0,-2.07 0,-2.95 0,-896.02 -335.08,-1760.46 -939,-2421.84l-254 -278.34c89.89,-64.88 167.22,-146.82 226.78,-240.44 80.67,-124.52 123.72,-270.1 123.72,-418.6 0,-77.16 -11.75,-154.04 -34.49,-227.73 234.19,-310.99 361.26,-690.22 361.26,-1079.75 0,-227.41 -43.38,-452.84 -127.51,-664.04 232.03,-310.31 357.63,-687.77 357.63,-1075.31 0,-227.08 -43.4,-452.86 -127.14,-663.72 231.95,-310.19 357.69,-687.41 357.69,-1074.92 0,-227.16 -43.37,-452.57 -127.27,-663.53 231.82,-309.99 357.59,-687.52 357.59,-1074.9 0,-226.12 -42.95,-450.71 -125.99,-660.83l159.39 -196.85c125.72,-151.77 194.66,-342.9 194.66,-540.12 0,-32.77 -1.96,-65.74 -5.69,-98.2 -23.38,-187.72 -107.81,-362.73 -239.97,-498.06l0.03 0.03zm-1706.67 9336.3l335.92 368.62c465.68,510.02 755.6,1157.9 825.62,1845.12l-356.02 -205.42c-397.58,-230.34 -706.86,-588.2 -877.15,-1014.93 -28.23,-70.29 -96.42,-116.49 -172.2,-116.49 -75.79,0 -143.98,46.2 -172.08,116.56 -170.4,426.86 -479.51,784.56 -877.04,1014.77l-355.92 205.32c69.78,-687.05 359.66,-1334.85 825.34,-1844.98l336.02 -368.83c80.19,16.36 162.32,24.71 244.29,24.71 81.68,0 163.21,-8.2 243.25,-24.44l-0.03 -0.01zm1470.13 -8433.54l-230.19 284.59c-26.68,32.94 -41.3,74.13 -41.3,116.55 0,27.55 6.17,54.8 18.01,79.66 92.33,191.16 140.39,401.16 140.39,613.57 0,333.86 -118.52,657.22 -334.21,911.84l-13.44 16.62c-26.66,32.94 -41.25,74.14 -41.25,116.58 0,27.56 6.18,54.84 18.01,79.7 92.33,191.35 140.4,401.22 140.4,613.68 0,333.76 -118.38,657.02 -333.94,911.69l-13.44 16.51c-26.71,33.07 -41.29,74.34 -41.29,116.84 0,27.76 6.25,55.2 18.19,80.23 92.14,191.13 140.22,401.03 140.22,613.34 0,333.82 -118.4,657.12 -333.99,911.83l-13.97 17.25c-26.48,33.09 -40.93,74.23 -40.93,116.62 0,27.78 6.22,55.25 18.17,80.32 92.2,191.09 140.27,401.13 140.27,613.42 0,333.59 -118.38,656.67 -333.76,911.35l-14.29 17.57c-26.5,33.16 -41,74.35 -41,116.76 0,27.75 6.24,55.23 18.17,80.27 27.19,55.23 41.43,116.16 41.43,177.78 0,78.75 -23.17,155.84 -66.53,221.53 -63.78,98.87 -158.89,173.88 -269.89,212.91 -78.32,25.82 -160.5,39.08 -242.97,39.08 -82.46,0 -164.64,-13.26 -242.95,-39.01 -111.11,-38.98 -206.26,-114.01 -270.03,-212.9 -43.31,-65.67 -66.44,-142.7 -66.44,-221.41 0,-61.67 14.24,-122.6 41.49,-177.89 11.8,-24.81 17.97,-52.05 17.97,-79.57 0,-42.46 -14.64,-83.68 -41.38,-116.63l-13.55 -16.93c-215.77,-254.91 -334.14,-577.97 -334.14,-911.88 0,-212.44 48.07,-422.3 140.42,-613.55 11.81,-24.92 18.01,-52.23 18.01,-79.82 0,-42.51 -14.65,-83.78 -41.45,-116.77l-13.23 -16.3c-215.64,-254.59 -334.18,-578 -334.18,-911.91 0,-212.43 48.07,-422.46 140.42,-613.71 11.82,-24.85 18,-52.09 18,-79.67 0,-42.4 -14.55,-83.53 -41.2,-116.49l-13.86 -17.15c-215.18,-254.97 -333.28,-578.19 -333.28,-911.94 0,-214.44 49.04,-426.64 142.79,-619.33 10.12,-23.25 15.39,-48.47 15.39,-73.9 0,-42.4 -14.57,-83.57 -41.22,-116.53l-13.86 -17.15c-215.6,-254.68 -334,-577.98 -334,-911.8 0,-212.49 48.08,-422.57 140.45,-613.86 11.96,-24.9 18.2,-52.32 18.2,-80.02 0,-42.42 -14.6,-83.59 -41.29,-116.54l-230.61 -285.12c-71.98,-86.05 -111.5,-194.91 -111.5,-307.17 0,-17.54 1.05,-35.26 2.92,-52.68 19.29,-139.06 94.58,-264.5 208.29,-346.9 46.06,-35.09 73.14,-89.75 73.14,-147.68 0,-34.49 -9.63,-68.33 -27.76,-97.65 -24.1,-37.02 -36.98,-80.36 -36.98,-124.56 0,-33.19 7.25,-66 21.21,-96.09 48.7,-96.34 142.21,-162.16 249.35,-175.46l63.5 -10.58c80.72,-13.37 143.16,-78.13 153.46,-159.31l7.41 -57.57c11.59,-78.08 57.24,-147.08 124.57,-188.27 61.18,-39.38 132.59,-60.34 205.4,-60.34 0.74,0 1.48,0 2.23,0 37.39,0.01 74.69,5.31 110.58,15.67l132.19 38.52c16.79,4.87 34.24,7.34 51.71,7.34 49.73,0 97.45,-19.99 132.34,-55.38l91.12 -92.92c70.43,-66.1 163.46,-102.97 260.04,-102.97 96.59,0 189.62,36.87 260.01,102.95l91.12 92.92c34.93,35.42 82.59,55.4 132.32,55.4 17.46,0 34.88,-2.47 51.63,-7.32l132.29 -38.52c35.67,-10.51 72.71,-15.87 109.9,-15.87 73.71,0 146.04,21.06 208.22,60.52 67.58,40.88 113.61,109.69 125.64,187.74l7.3 57.47c10.31,81.18 72.75,145.94 153.47,159.27l63.5 10.58c107.01,13.46 200.57,79.34 249.25,175.59 13.9,30.1 21.13,62.86 21.13,96.02 0,44.21 -12.81,87.49 -36.9,124.56 -18.21,29.32 -27.89,63.17 -27.89,97.7 0,57.84 27.04,112.4 73.06,147.4 113.76,82.46 189.09,207.91 208.32,347.1 1.86,17.39 2.85,35 2.85,52.5 0,112.47 -39.62,221.49 -111.77,307.69l-0.01 -0.01z"/>
   <path class="fil0" d="M17267.41 10055.75c-23.38,-187.65 -107.81,-362.87 -239.97,-498.2 17.47,-56.47 26.37,-115.44 26.37,-174.63 0,-85.81 -18.74,-170.83 -54.7,-248.69 -88.27,-187.33 -257.02,-324.89 -458.38,-373.56 -42.21,-153.97 -140.12,-287.31 -274.49,-373.6 -121.9,-79.25 -264.68,-121.61 -410.22,-121.61 -72.49,0 -144.71,10.57 -214.17,31.15l-26.04 7.51 -13.55 -13.76c-140.07,-137.11 -328.41,-213.98 -524.44,-213.98 -196.03,0 -384.37,76.87 -524.4,213.97l-13.55 13.86 -25.93 -7.51c-69.59,-20.66 -141.82,-31.15 -214.41,-31.15 -145.65,0 -288.45,42.32 -410.54,121.63 -134.31,86.35 -232.17,219.58 -274.42,373.61 -201.41,48.69 -370.1,186.02 -458.5,373.45 -35.86,77.92 -54.55,162.82 -54.55,248.6 0,59.19 8.91,118.23 26.3,174.74 -132.28,135.18 -216.99,310.42 -240.34,498.22 -3.76,32.43 -5.72,65.5 -5.72,98.27 0,196.81 68.74,387.73 194.02,539.36l159.91 197.49c-83.38,210.55 -126.53,435.3 -126.53,661.81 0,387.73 125.74,765.17 357.94,1075.35 -83.9,211.08 -127.28,436.76 -127.28,663.98 0,387.6 125.77,765.13 357.8,1075.39 -83.95,210.97 -127.1,436.16 -127.1,663.31 0,387.51 125.74,764.73 357.72,1074.92 -83.93,211.05 -127.31,436.47 -127.31,663.65 0,389.29 126.84,768.5 360.81,1079.36 -22.69,73.57 -34.24,150.22 -34.24,227.25 0,148.42 43.02,293.73 123.62,418.29 59.65,93.72 136.71,175.29 226.66,240.33l-254 278.55c-603.98,661.34 -939.1,1525.91 -939.1,2422.06 0,0.88 0,1.75 0,2.63 0,102.38 82.94,185.3 185.21,185.3 32.45,0 64.4,-8.57 92.5,-24.76l650.56 -375.07c355.51,-205.47 653.31,-499.13 864.17,-851.34 211.02,352.27 508.88,645.4 864.13,851.27l650.56 375.07c28.16,16.26 60.11,24.83 92.56,24.83 102.27,0 185.21,-82.92 185.21,-185.19 0.01,-0.84 0.01,-2.15 0.01,-3.03 0,-895.97 -335.06,-1760.36 -938.94,-2421.7l-254 -278.34c89.95,-64.99 167,-146.74 226.52,-240.46 80.79,-124.56 123.91,-270.17 123.91,-418.7 0,-77.13 -11.74,-153.98 -34.48,-227.63 234.18,-311.03 361.25,-690.26 361.25,-1079.79 0,-227.41 -43.38,-452.84 -127.51,-664.04 232.51,-310.06 358.49,-687.58 358.49,-1075.15 0,-227.46 -43.53,-453.18 -127.73,-664.25 231.86,-309.99 357.39,-687.25 357.39,-1074.59 0,-227.19 -43.16,-452.41 -127.07,-663.38 231.66,-310.1 357.43,-687.63 357.43,-1075.01 0,-226.12 -42.94,-450.71 -125.99,-660.83l159.39 -196.85c125.81,-151.81 194.86,-343.03 194.86,-540.36 0,-32.66 -1.96,-65.74 -5.68,-98.09l-0.02 0.04zm-1946.28 8838.04l335.81 368.72c465.77,510.12 755.59,1157.81 825.59,1844.83l-355.92 -205.32c-397.54,-230.14 -706.82,-588 -877.11,-1014.73 -28.23,-70.3 -96.42,-116.5 -172.21,-116.5 -75.79,0 -143.98,46.2 -172.08,116.56 -170.39,426.86 -479.5,784.56 -877.03,1014.77l-356.02 205.42c69.77,-687.12 359.69,-1335 825.44,-1845.2l336.02 -368.83c80.2,16.46 162.22,24.93 244.24,24.93 81.57,0 163.45,-8.32 243.24,-24.52l0.03 -0.13zm1469.82 -8433.44l-230.19 284.59c-26.68,32.94 -41.3,74.13 -41.3,116.55 0,27.55 6.17,54.8 18.01,79.66 92.28,191.24 140.35,401.1 140.35,613.54 0,333.74 -118.54,657.14 -334.08,911.8l-13.44 16.62c-26.75,33.01 -41.34,74.21 -41.34,116.65 0,27.56 6.18,54.84 18.01,79.7 92.33,191.36 140.4,401.23 140.4,613.69 0,333.76 -118.38,657.02 -333.94,911.69l-13.44 16.51c-26.72,33.1 -41.32,74.4 -41.32,116.95 0,27.7 6.21,55.12 18.1,80.12 92.19,191.03 140.27,401.11 140.27,613.42 0,333.82 -118.57,656.95 -333.99,911.66l-13.97 17.25c-26.41,33.17 -40.86,74.31 -40.86,116.7 0,27.78 6.22,55.25 18.17,80.32 92.19,191.1 140.26,401.14 140.26,613.43 0,333.59 -118.38,656.67 -333.76,911.35l-14.29 17.57c-26.49,33.15 -40.99,74.34 -40.99,116.75 0,27.75 6.24,55.23 18.17,80.27 27.27,55.27 41.49,116.15 41.49,177.77 0,78.73 -23.19,155.79 -66.57,221.43 -63.89,98.97 -159.05,174.06 -270.22,213.06 -78.33,25.78 -160.51,39.04 -242.98,39.04 -82.47,0 -164.65,-13.26 -242.96,-39.01 -111.11,-39 -206.24,-113.99 -270.03,-212.88 -43.31,-65.69 -66.44,-142.72 -66.44,-221.43 0,-61.67 14.24,-122.6 41.49,-177.89 11.85,-24.85 18.02,-52.1 18.02,-79.67 0,-42.33 -14.53,-83.39 -41.11,-116.31l-13.55 -16.93c-215.77,-254.91 -334.14,-577.97 -334.14,-911.88 0,-212.44 48.07,-422.3 140.42,-613.55 11.81,-24.92 18.01,-52.23 18.01,-79.82 0,-42.51 -14.65,-83.78 -41.45,-116.77l-13.23 -16.3c-215.68,-254.65 -334.24,-578.1 -334.24,-912.06 0,-212.46 48.08,-422.35 140.44,-613.63 11.76,-24.89 17.94,-52.13 17.94,-79.71 0,-42.4 -14.55,-83.53 -41.2,-116.49l-13.86 -17.04c-215.6,-254.54 -334.11,-577.87 -334.11,-911.71 0,-211.36 47.72,-420.66 139.19,-611 12.84,-25.73 19.55,-54.14 19.55,-82.88 0,-42.46 -14.62,-83.7 -41.38,-116.65l-13.86 -17.15c-215.6,-254.67 -334,-577.97 -334,-911.79 0,-212.49 48.08,-422.57 140.45,-613.86 11.96,-24.9 18.2,-52.32 18.2,-80.02 0,-42.42 -14.6,-83.59 -41.29,-116.54l-230.61 -285.12c-71.98,-86.05 -111.5,-194.91 -111.5,-307.17 0,-17.54 1.05,-35.26 2.92,-52.68 19.16,-139.2 94.45,-264.69 208.17,-347.23 46.07,-35.08 73.15,-89.74 73.15,-147.67 0,-34.49 -9.63,-68.33 -27.76,-97.65 -24.09,-37.02 -36.97,-80.36 -36.97,-124.56 0,-33.19 7.25,-66 21.21,-96.09 48.69,-96.34 142.2,-162.16 249.34,-175.46l63.5 -10.58c80.72,-13.37 143.16,-78.13 153.46,-159.31l7.41 -57.57c11.95,-77.88 57.83,-146.62 125.2,-187.51 61.18,-39.4 132.59,-60.36 205.4,-60.36 0.7,0 1.44,0 2.13,0 37.4,0.01 74.7,5.31 110.59,15.67l132.83 38.32c16.78,4.86 34.24,7.35 51.72,7.35 49.73,0 97.44,-19.98 132.32,-55.4l91.12 -92.92c70.42,-66.1 163.45,-102.97 260.04,-102.97 96.59,0 189.62,36.87 260.01,102.95l91.12 92.92c34.94,35.42 82.6,55.4 132.33,55.4 17.46,0 34.88,-2.47 51.63,-7.32l132.29 -38.52c35.67,-10.51 72.71,-15.87 109.9,-15.87 73.71,0 146.04,21.06 208.22,60.52 67.46,40.88 113.42,109.65 125.33,187.63l7.3 57.47c10.3,81.24 72.8,146.09 153.57,159.41l63.5 10.58c107.02,13.41 200.47,79.26 249.12,175.56 13.96,30.11 21.23,62.94 21.23,96.13 0,44.15 -12.85,87.45 -36.9,124.44 -18.18,29.32 -27.86,63.17 -27.86,97.7 0,57.84 27.04,112.4 73.06,147.4 113.76,82.47 189.09,207.92 208.32,347.11 1.81,17.31 2.81,34.82 2.81,52.22 0,112.69 -39.65,221.86 -112.04,308.19l-0.02 -0.13z"/>
  </g>
 </g>
</svg>
