<?xml version="1.0" encoding="UTF-8"?>
<!DOCTYPE svg PUBLIC "-//W3C//DTD SVG 1.1//EN" "http://www.w3.org/Graphics/SVG/1.1/DTD/svg11.dtd">
<!-- Creator: CorelDRAW -->
<svg xmlns="http://www.w3.org/2000/svg" xml:space="preserve" width="210mm" height="297mm" version="1.1" style="shape-rendering:geometricPrecision; text-rendering:geometricPrecision; image-rendering:optimizeQuality; fill-rule:evenodd; clip-rule:evenodd"
viewBox="0 0 21000 29700"
 xmlns:xlink="http://www.w3.org/1999/xlink"
 xmlns:xodm="http://www.corel.com/coreldraw/odm/2003">
 <defs>
  <style type="text/css">
   <![CDATA[
    .fil0 {fill:#6BBBAE;fill-rule:nonzero}
   ]]>
  </style>
 </defs>
 <g id="Слой_x0020_1">
  <metadata id="CorelCorpID_0Corel-Layer"/>
  <g id="Page-1">
   <g id="_037---Frozen-Fish">
    <path id="Shape" class="fil0" d="M14552.03 9712.43c105.54,-105.9 105.34,-277.28 -0.44,-382.94 -105.78,-105.66 -277.16,-105.66 -382.94,0 -105.78,105.66 -105.98,277.03 -0.44,382.94 50.84,51.01 119.89,79.69 191.91,79.69 72.02,0 141.07,-28.67 191.91,-79.69z"/>
    <path id="Shape_0" class="fil0" d="M12253.39 13003.14c91.3,-0.02 173.61,-55.03 208.55,-139.38 34.94,-84.35 15.63,-181.45 -48.92,-246.02 -948.27,-948.27 -443.88,-1532.58 -382.02,-1597.6 85.27,-88.94 83.48,-229.82 -4.01,-316.57 -87.49,-86.75 -228.38,-87.34 -316.59,-1.32 -9.26,9.26 -910.79,940.82 383.82,2235.2 42.2,42.22 99.49,65.86 159.17,65.7l0 -0.01z"/>
    <path id="Shape_1" class="fil0" d="M11455.04 13575.48c-1028.64,-1028.64 -724.52,-2026.81 -711.2,-2068.8 25.29,-76.63 7.77,-160.93 -45.95,-221.14 -53.72,-60.21 -135.48,-87.2 -214.49,-70.78 -79.01,16.41 -143.26,73.73 -168.54,150.36 -17.61,52.38 -413.17,1295.96 820.48,2529.84 88.22,88.16 231.2,88.11 319.36,-0.11 88.16,-88.22 88.11,-231.2 -0.11,-319.36l0.45 -0.01z"/>
    <path id="Shape_2" class="fil0" d="M15444.53 15232.24c1886.37,-2212.62 1835.57,-5183.86 1717.94,-6389.51 -41.99,-378.79 -341.92,-677.32 -720.91,-717.52 -1047.83,-101.83 -3440.63,-153.3 -5502.2,1080.35 -836.51,-225.78 -2501.17,-318.35 -4607.45,1419.24 -106.63,88.47 -171.19,217.66 -177.91,356.05 -6.51,140.3 46.25,276.89 145.4,376.37l1680.46 1680.46c-228.83,720.98 -379.61,1464.43 -449.75,2217.59 -645.74,-41.21 -1280.4,182.41 -1757.68,619.31l-1915.72 1915.27c-88.14,88.17 -88.14,231.08 0,319.25 53.28,53.51 1203.17,1184.88 2504.55,943.53 -241.13,1300.48 890.02,2451.27 943.53,2504.55 88.17,88.14 231.08,88.14 319.25,0l1915.5 -1915.5c547.06,-547.06 647.08,-1297.77 615.24,-1898.34 132.91,-15.05 263.86,-31.61 392.85,-49.67 -278.56,1709.04 777.63,3352.73 2447.89,3809.5 1670.26,456.77 3415.92,-420.69 4045.83,-2033.64 629.91,-1612.95 -59.08,-3441.22 -1596.83,-4237.29l0.01 0zm954.59 -6657.51c163.75,19.37 293.07,148.13 313.15,311.8 128.7,1293.49 -3.42,2599.65 -388.56,3841.16 -923.49,-198.44 -1770.78,-657.35 -2441.56,-1322.38 -665.69,-670.98 -1125.35,-1518.53 -1324.64,-2442.46 1241.71,-384.91 2548,-516.88 3841.61,-388.11l0 -0.01zm-9780.24 2463.24c-9.65,-9.26 -14.69,-22.33 -13.77,-35.67 0.23,-11.39 5.43,-22.11 14.22,-29.35 1638.47,-1351.73 2960.85,-1515.42 3786.29,-1412.92 -192.2,140.12 -376.42,290.87 -551.8,451.56 -755.99,710.85 -1339.57,1585.03 -1706.2,2555.8l-1528.74 -1529.42zm2601.41 8284.46l-1745.71 1745.49c-306.83,-375.69 -946.46,-1314.7 -581.83,-2227.52l347.7 -348.15c58.69,-56.69 82.23,-140.63 61.57,-219.57 -20.66,-78.94 -82.31,-140.59 -161.25,-161.25 -78.94,-20.66 -162.88,2.88 -219.57,61.57l-347.7 348.15c-913.5,364.18 -1851.38,-275.67 -2227.52,-582.06l1745.71 -1745.49c383.85,-342.31 888.51,-517.14 1401.85,-485.65 -28,427.17 -39.74,869.02 -30.25,1329.83 15.78,426.42 356.87,768.99 783.22,786.61 117.63,2.48 234.58,3.61 350.18,3.61 380.66,0 749.81,-14.68 1108.12,-41.32 23.71,498.97 -57.8,1109.02 -484.52,1535.74l0 0.01zm-964.07 -1950.49c-185.02,-9.98 -332.5,-158.33 -341.38,-343.41 -61.41,-2999.68 694.27,-5249.11 2246.49,-6686.18 575.09,-526.18 1242.79,-941.1 1969.23,-1223.72 223.96,985.79 720.52,1888.78 1433.01,2605.93 716.34,712.07 1618.5,1208.33 2603.44,1432.11 -272.29,692.94 -664.43,1332.54 -1158.47,1889.53 -864.96,-307.67 -1817.93,-249.68 -2639.2,160.61 -821.26,410.29 -1439.93,1137.46 -1713.35,2013.85 -793.96,120.62 -1596.97,171.24 -2399.79,151.27l0.02 0.01zm5630.45 3799.84c-1621.02,0 -2935.11,-1314.09 -2935.11,-2935.11 0,-1621.02 1314.09,-2935.11 2935.11,-2935.11 1621.02,0 2935.11,1314.09 2935.11,2935.11 -1.87,1620.24 -1314.87,2933.24 -2935.11,2935.11z"/>
    <path id="Shape_3" class="fil0" d="M15729.01 16912.25l-221.26 127.56 25.29 -391.27c3.84,-59.76 -16.23,-118.6 -55.78,-163.57 -39.55,-44.97 -95.34,-72.38 -155.1,-76.21 -59.98,-4.77 -119.33,14.96 -164.52,54.69 -45.19,39.73 -72.33,96.08 -75.26,156.18l-44.25 691.33 -925.69 534.64 0 -1068.61 576.86 -383.82c67.11,-44.77 105.24,-121.94 100.03,-202.44 -5.21,-80.5 -52.98,-152.11 -125.31,-187.85 -72.33,-35.74 -158.22,-30.17 -225.33,14.6l-326.25 216.97 0 -255.58c0,-124.69 -101.08,-225.78 -225.78,-225.78 -124.7,0 -225.78,101.08 -225.78,225.78l0 255.58 -326.25 -217.65c-67.11,-44.77 -153.01,-50.33 -225.33,-14.6 -72.33,35.74 -120.09,107.34 -125.31,187.85 -5.22,80.51 32.92,157.67 100.03,202.44l576.86 384.5 0 1068.61 -925.69 -534.64 -45.16 -691.56c-3.11,-60.03 -30.32,-116.26 -75.45,-155.96 -45.13,-39.7 -104.39,-59.5 -164.32,-54.91 -59.76,3.83 -115.55,31.24 -155.1,76.21 -39.55,44.97 -59.61,103.8 -55.78,163.57l26.19 391.72 -221.26 -127.56c-69.89,-40.98 -156.38,-41.36 -226.64,-1.01 -70.25,40.35 -113.5,115.26 -113.32,196.28 0.18,81.02 43.75,155.73 114.19,195.78l221.04 127.79 -351.31 173.85c-112.04,55.24 -158.08,190.84 -102.84,302.88 55.24,112.04 190.84,158.08 302.88,102.84l621.11 -308.41 925.69 534.19 -925.69 534.19 -621.34 -307.28c-111.64,-54.3 -246.18,-8.29 -301.17,103.01 -55,111.3 -9.82,246.12 101.13,301.81l351.31 173.85 -221.04 127.79c-70.43,40.04 -114.01,114.76 -114.19,195.78 -0.18,81.02 43.07,155.92 113.32,196.28 70.25,40.35 156.75,39.97 226.64,-1.01l221.26 -127.56 -25.29 391.27c-3.84,59.76 16.23,118.6 55.78,163.57 39.55,44.97 95.34,72.38 155.1,76.21l14.69 -0.01c119.26,0.24 218.15,-92.31 225.78,-211.33l45.16 -691.56 924.33 -533.96 0 1068.61 -576.86 383.82c-103.75,69.2 -131.75,209.41 -62.54,313.15 69.2,103.75 209.41,131.75 313.15,62.54l326.25 -216.97 0 255.58c0,124.69 101.08,225.78 225.78,225.78 124.7,0 225.78,-101.08 225.78,-225.78l0 -255.58 326.25 217.65c103.75,69.2 243.95,41.2 313.15,-62.54 69.2,-103.74 41.2,-243.95 -62.54,-313.15l-576.86 -384.5 0 -1068.61 925.69 534.64 45.16 691.56c7.63,119.02 106.52,211.57 225.78,211.33l14.66 0c59.76,-3.83 115.55,-31.24 155.1,-76.21 39.55,-44.97 59.61,-103.8 55.78,-163.57l-26.87 -392.18 221.26 127.56c69.89,40.98 156.38,41.36 226.64,1.01 70.25,-40.35 113.5,-115.26 113.32,-196.28 -0.18,-81.02 -43.75,-155.73 -114.19,-195.78l-221.04 -127.79 351.31 -173.85c110.95,-55.69 156.13,-190.51 101.13,-301.81 -55,-111.3 -189.53,-157.31 -301.17,-103.01l-621.11 307.51 -925.69 -534.19 925.69 -534.19 621.11 308.41c111.64,54.3 246.18,8.29 301.17,-103.01 55,-111.3 9.82,-246.12 -101.13,-301.81l-351.31 -173.85 221.04 -127.79c70.43,-40.04 114.01,-114.76 114.19,-195.78 0.18,-81.02 -43.07,-155.92 -113.32,-196.28 -70.25,-40.35 -156.75,-39.97 -226.64,1.01l0 -1.11z"/>
   </g>
  </g>
 </g>
</svg>
