<?xml version="1.0" encoding="UTF-8"?>
<!DOCTYPE svg PUBLIC "-//W3C//DTD SVG 1.1//EN" "http://www.w3.org/Graphics/SVG/1.1/DTD/svg11.dtd">
<!-- Creator: CorelDRAW -->
<svg xmlns="http://www.w3.org/2000/svg" xml:space="preserve" width="210mm" height="297mm" version="1.1" style="shape-rendering:geometricPrecision; text-rendering:geometricPrecision; image-rendering:optimizeQuality; fill-rule:evenodd; clip-rule:evenodd"
viewBox="0 0 21000 29700"
 xmlns:xlink="http://www.w3.org/1999/xlink"
 xmlns:xodm="http://www.corel.com/coreldraw/odm/2003"
 enable-background="new 0 0 450 450">
 <defs>
  <style type="text/css">
   <![CDATA[
    .fil0 {fill:#6BBBAE;fill-rule:nonzero}
   ]]>
  </style>
 </defs>
 <g id="Слой_x0020_1">
  <metadata id="CorelCorpID_0Corel-Layer"/>
  <g id="_105553117091680">
   <g>
    <path class="fil0" d="M16457.52 19904.11l-11899.39 0c-387.74,0 -703.22,-315.49 -703.22,-703.22l0 -8657.52c0,-387.74 315.49,-703.22 703.22,-703.22l11899.39 -0.01c387.74,0 703.22,315.49 703.22,703.22l0 8657.52c0,388.04 -315.49,703.22 -703.22,703.22l0 0.01zm-11899.39 -9762.63c-221.86,0 -402.19,180.32 -402.19,402.19l0 8657.52c0,221.56 180.32,402.19 402.19,402.19l11899.39 -0.01c221.56,0 402.19,-180.32 402.19,-402.19l0 -8657.83c0,-221.56 -180.32,-402.19 -402.19,-402.19l-11899.39 0.32z"/>
   </g>
   <g>
    <path class="fil0" d="M10486.75 18799l-4823.51 0c-387.74,0 -703.22,-315.49 -703.22,-703.22l0 -6447.01c0,-387.74 315.49,-703.22 703.22,-703.22l9689.18 0c387.74,0 703.22,315.49 703.22,703.22l0 3133.49c0,83.09 -67.43,150.52 -150.52,150.52 -83.09,0 -150.52,-67.43 -150.52,-150.52l0 -3133.49c0,-221.86 -180.32,-402.19 -402.19,-402.19l-9689.17 0.01c-221.56,0 -402.19,180.32 -402.19,402.19l0 6447.01c0,221.56 180.32,402.19 402.19,402.19l4823.51 -0.01c83.09,0 150.52,67.43 150.52,150.52 0,83.09 -67.43,150.52 -150.52,150.52l0 -0.01z"/>
   </g>
   <g>
    <path class="fil0" d="M9730.55 17236.92c-1676.17,0 -3163,-928.4 -3699.44,-2310.16 -13.55,-34.92 -13.55,-74.06 0,-108.98 536.75,-1381.76 2023.27,-2310.16 3699.44,-2310.16 1209.87,0 2347.49,488.88 3085.33,1316.43 332.65,-439.51 1027.74,-1136.41 2042.24,-1041.29 56.29,5.42 105.06,41.84 125.83,94.53 20.77,52.69 10.24,112.59 -27.39,155.03 -835.68,944.05 -1024.73,1905.87 -562.04,2858.35 36.43,74.66 5.12,164.97 -69.54,201.09 -74.66,36.12 -164.97,5.12 -201.09,-69.54 -257.99,-531.63 -336.56,-1073.8 -232.7,-1611.45 86.1,-447.34 299.23,-893.48 634.59,-1329.08 -820.02,74.96 -1364.3,755.9 -1574.42,1071.09 -26.79,40.04 -71.04,65.02 -118.91,66.83 -48.47,2.11 -94.22,-18.97 -124.33,-56.9 -673.42,-848.02 -1786.65,-1354.37 -2977.56,-1354.37 -1530.47,0 -2887.25,826.95 -3397.2,2063.61 509.96,1236.96 1866.43,2063.61 3397.2,2063.61 1190.9,0 2304.14,-506.34 2977.56,-1354.37 29.8,-37.63 75.56,-58.7 124.33,-56.9 48.17,2.11 92.42,26.79 118.91,67.13 112.89,169.48 354.32,490.69 702.02,736.04 68.03,47.86 84.29,141.79 36.12,209.82 -47.86,68.03 -141.79,83.99 -209.82,36.12 -287.49,-202.9 -508.45,-447.04 -663.79,-652.95 -737.84,827.85 -1875.76,1316.43 -3085.33,1316.43l-0.01 0.04z"/>
   </g>
   <g>
    <path class="fil0" d="M7899.34 16824.5c-50.88,0 -100.85,-25.89 -129.14,-72.85 -43.05,-71.04 -20.17,-163.76 51.18,-206.51 554.51,-335.05 899.2,-975.96 899.2,-1672.86 0,-696.9 -344.39,-1337.81 -899.2,-1672.86 -71.04,-43.05 -93.92,-135.47 -51.18,-206.81 43.05,-71.04 135.47,-93.92 206.81,-51.18 644.22,389.24 1044.6,1128.89 1044.6,1930.55 0,801.66 -400.08,1541.31 -1044.6,1930.55 -24.38,15.05 -51.18,21.98 -77.67,21.98l0 -0.01z"/>
   </g>
   <g>
    <path class="fil0" d="M10094.5 15762.74c-489.19,0 -964.52,-121.02 -1339.01,-341.07 -71.65,-42.15 -95.73,-134.26 -53.58,-205.91 42.15,-71.65 134.26,-95.73 205.91,-53.58 328.73,193.27 750.18,299.53 1186.39,299.53 633.08,0 1224.92,-228.19 1547.33,-589.43 -322.41,-360.94 -914.25,-589.43 -1547.33,-589.43 -436.2,0 -857.65,106.27 -1186.39,299.53 -71.65,42.15 -164.07,18.06 -205.91,-53.58 -41.84,-71.64 -18.06,-164.07 53.58,-205.91 374.19,-219.76 849.83,-341.07 1339.01,-341.07 788.42,0 1501.87,307.36 1862.52,801.66 38.53,52.98 38.53,124.33 0,177.31 -360.34,494.6 -1074.1,801.96 -1862.52,801.96l0 -0.01z"/>
   </g>
   <g>
    <path class="fil0" d="M16457.52 19904.11l-7519.9 0c-65.33,0 -123.43,-42.15 -143.29,-104.76 -19.87,-62.31 2.71,-130.35 55.99,-168.58l8072.31 -5760.34c45.76,-32.81 105.97,-37.03 156.24,-11.44 50.27,25.89 81.58,77.37 81.58,133.96l0 5207.64c0.3,388.34 -315.19,703.52 -702.92,703.52l-0.01 0zm-7049.68 -301.04l7049.68 0c221.56,0 402.19,-180.32 402.19,-402.19l0 -4915.03 -7451.87 5317.22z"/>
   </g>
   <g>
    <path class="fil0" d="M7215.38 15188.97c-38.53,0 -77.07,-14.75 -106.57,-43.95 -58.7,-58.7 -58.7,-154.13 0,-212.83l332.04 -332.04c58.7,-58.7 154.13,-58.7 212.83,0 58.7,58.7 58.7,154.13 0,212.83l-332.04 332.04c-29.2,29.2 -67.73,43.95 -106.27,43.95l0.01 0z"/>
   </g>
   <g>
    <path class="fil0" d="M7547.43 15188.97c-38.53,0 -77.07,-14.75 -106.57,-43.95l-332.04 -332.04c-58.7,-58.7 -58.7,-154.13 0,-212.83 58.7,-58.7 154.13,-58.7 212.83,0l332.04 332.04c58.7,58.7 58.7,154.13 0,212.83 -29.2,29.2 -67.73,43.95 -106.27,43.95l0.01 0z"/>
   </g>
   <g>
    <path class="fil0" d="M6684.36 15026.71c-32.51,0 -65.33,-10.54 -93.02,-32.21 -42.45,-25.29 -229.99,-14.15 -384.12,23.78 -80.68,19.87 -162.26,-29.5 -182.13,-109.88 -19.87,-80.68 29.2,-162.26 110.18,-182.13 137.87,-34.02 475.94,-99.04 642.11,31.61 65.33,51.48 76.76,146 25.29,211.33 -29.5,37.63 -73.75,57.5 -118.31,57.5z"/>
   </g>
  </g>
 </g>
</svg>
